<?xml version="1.0" encoding="utf-8"?>
<!-- Generator: Adobe Illustrator 17.1.0, SVG Export Plug-In . SVG Version: 6.00 Build 0)  -->
<!DOCTYPE svg PUBLIC "-//W3C//DTD SVG 1.1//EN" "http://www.w3.org/Graphics/SVG/1.1/DTD/svg11.dtd">
<svg version="1.1" id="Layer_1" xmlns="http://www.w3.org/2000/svg" xmlns:xlink="http://www.w3.org/1999/xlink" x="0px" y="0px"
	 viewBox="0 0 64 64" enable-background="new 0 0 64 64" xml:space="preserve">
<circle display="none" fill="#FFDD67" cx="32" cy="32" r="30"/>
<path fill="#664E27" d="M41,49.7c-5.8-4.8-12.2-4.8-18,0c-0.7,0.6-1.3-0.4-0.8-1.3c1.8-3.4,5.3-6.5,9.8-6.5s8.1,3.1,9.8,6.5
	C42.3,49.2,41.7,50.2,41,49.7z"/>
<path fill="#FFFFFF" d="M10.2,24.9c-1.5,4.7,0.6,10,5.3,12.1c4.6,2.2,10,0.5,12.7-3.7l-6.9-7.7C21.2,25.6,10.2,24.9,10.2,24.9z"/>
<path fill="#664E27" d="M14.2,25.8c-1.4,2.9-0.1,6.4,2.8,7.8c2.9,1.4,6.4,0.1,7.8-2.8c0,0,0,0,0-0.1C25.7,28.8,15.1,23.9,14.2,25.8z
	"/>
<path fill="#664E27" d="M10.2,24.9c1.6-1,3.5-1.5,5.4-1.5c1.9,0,3.8,0.5,5.6,1.3c1.7,0.8,3.3,2,4.6,3.4c1.2,1.5,2.2,3.2,2.4,5.1
	c-1.3-1.3-2.6-2.4-4-3.4c-1.3-0.9-2.8-1.8-4.2-2.4c-1.5-0.7-3-1.2-4.6-1.7C13.6,25.4,12,25.1,10.2,24.9z"/>
<g>
	<path fill="#FFFFFF" d="M53.8,24.9c1.5,4.7-0.6,10-5.3,12.1c-4.6,2.2-10,0.5-12.7-3.7l6.9-7.7C42.8,25.6,53.8,24.9,53.8,24.9z"/>
	<path fill="#664E27" d="M49.8,25.8c1.4,2.9,0.1,6.4-2.8,7.8c-2.9,1.4-6.4,0.1-7.8-2.8c0,0,0,0,0-0.1C38.3,28.8,48.9,23.9,49.8,25.8
		z"/>
	<path fill="#664E27" d="M53.8,24.9c-1.6-1-3.5-1.5-5.4-1.5c-1.9,0-3.8,0.5-5.6,1.3c-1.7,0.8-3.3,2-4.6,3.4
		c-1.2,1.5-2.2,3.2-2.4,5.1c1.3-1.3,2.6-2.4,4-3.4c1.3-0.9,2.8-1.8,4.2-2.4c1.5-0.7,3-1.2,4.6-1.7C50.4,25.4,52,25.1,53.8,24.9z"/>
</g>
</svg>
