<?xml version="1.0" encoding="utf-8"?>
<!-- Generator: Adobe Illustrator 17.1.0, SVG Export Plug-In . SVG Version: 6.00 Build 0)  -->
<!DOCTYPE svg PUBLIC "-//W3C//DTD SVG 1.1//EN" "http://www.w3.org/Graphics/SVG/1.1/DTD/svg11.dtd">
<svg version="1.1" id="Layer_1" xmlns="http://www.w3.org/2000/svg" xmlns:xlink="http://www.w3.org/1999/xlink" x="0px" y="0px"
	 viewBox="0 0 64 64" enable-background="new 0 0 64 64" xml:space="preserve">
<path display="none" fill="#FFDD67" d="M62,32c0,16.6-13.4,30-30,30C15.4,62,2,48.6,2,32C2,15.4,15.4,2,32,2C48.6,2,62,15.4,62,32z"
	/>
<path fill="#F46767" d="M61.8,13.2c-0.5-2.7-2-4.9-4.5-5.6c-2.7-0.7-5.1,0.3-7.4,2.7c-1.3-3.6-3.3-6.3-6.5-7.7
	C40.2,1.2,37,2.2,35,4.7c-2.1,2.6-2.9,6.7-0.7,12c2.1,5,11.4,15,11.7,15.3c0.4-0.2,10.8-6.7,13.3-9.9C61.8,19,62.3,15.9,61.8,13.2z
	 M29,4.7c-2-2.5-5.2-3.5-8.4-2.1c-3.2,1.4-5.2,4.1-6.5,7.7C11.7,8,9.3,6.9,6.6,7.7c-2.4,0.7-4,2.9-4.5,5.6c-0.5,2.6,0.1,5.8,2.5,8.9
	C7.2,25.3,17.6,31.8,18,32c0.3-0.3,9.6-10.3,11.7-15.3C31.9,11.4,31.1,7.4,29,4.7z"/>
<path fill="#664E27" d="M49,38.1c0-0.8-0.5-1.8-1.8-2.1c-3.5-0.7-8.6-1.3-15.2-1.3h0c-6.6,0-11.7,0.7-15.2,1.3
	c-1.4,0.3-1.8,1.3-1.8,2.1c0,7.3,5.6,14.6,17,14.6h0C43.4,52.6,49,45.3,49,38.1z"/>
<path fill="#FFFFFF" d="M44.7,38.3c-2.2-0.4-6.8-1-12.7-1c-5.9,0-10.5,0.6-12.7,1C18,38.5,17.9,39,18,39.8c0.1,0.4,0.1,1,0.3,1.6
	c0.1,0.6,0.3,0.9,1.3,0.8c1.9-0.2,23-0.2,24.9,0c1,0.1,1.1-0.2,1.3-0.8c0.1-0.6,0.2-1.1,0.3-1.6C46.1,39,46,38.5,44.7,38.3z"/>
</svg>
