<?xml version="1.0" encoding="utf-8"?>
<!-- Generator: Adobe Illustrator 17.1.0, SVG Export Plug-In . SVG Version: 6.00 Build 0)  -->
<!DOCTYPE svg PUBLIC "-//W3C//DTD SVG 1.1 Tiny//EN" "http://www.w3.org/Graphics/SVG/1.1/DTD/svg11-tiny.dtd">
<svg version="1.1" baseProfile="tiny" id="Layer_1" xmlns="http://www.w3.org/2000/svg" xmlns:xlink="http://www.w3.org/1999/xlink"
	 x="0px" y="0px" viewBox="0 0 50 50" xml:space="preserve">
<g>
	<circle display="none" fill="#FFCA00" cx="25" cy="25" r="25"/>
	<path fill="#453700" d="M18.7,11.9c-0.3-0.7-0.7-1.4-1.2-2.1c-0.6-0.6-1.3-1.1-2.2-1.4c-0.9-0.3-1.8-0.1-2.7,0.2
		c-0.8,0.3-1.5,0.9-2.1,1.5c-1.2,1.3-1.9,2.8-2.2,4.5c-0.3,1.6-0.2,3.3,0.4,4.8c0-1.6,0.2-3.1,0.6-4.5c0.5-1.4,1.2-2.7,2.1-3.7
		c0.9-1,2.2-1.7,3.5-1.6C16.4,9.8,17.7,10.8,18.7,11.9z"/>
	<path fill="#453700" d="M27.4,10.7c0.2-1.6,0.6-3.1,1.6-4c1-0.9,2.4-1.1,3.8-0.8c1.4,0.3,2.7,0.9,3.9,1.8c1.2,0.9,2.2,2,3.2,3.3
		c-0.4-1.5-1.2-3-2.4-4.1c-1.2-1.1-2.7-2-4.4-2.3c-0.8-0.1-1.7-0.2-2.6,0c-0.9,0.2-1.7,0.7-2.3,1.4c-0.6,0.7-0.9,1.5-1,2.4
		C27.2,9.1,27.2,9.9,27.4,10.7z"/>
	<path fill="#631B1A" d="M17.2,42.2c-2.4,2.3-6.1,1.5-7.5-1.8c-0.4-0.9-0.6-1.9-0.6-2.9C9.2,26.8,15,16.9,23.9,13.4
		c9-3.5,18.5,0.5,23.8,9.1c0.5,0.9,0.8,1.8,1,2.8c0.5,3.7-2.1,6.9-5.2,6.8c-2.8-0.1-8.7,0-13.8,2.3C23,37.3,19.1,40.5,17.2,42.2z"/>
	<path fill="#D45555" d="M32.5,24.4c-2.1,0.7-3.8,2.1-5.1,3.9c-1.6-0.7-3.5-1-5.3-0.7c-5.8,1.1-9.7,7.6-8.8,14.5
		c0.1,0.5,0.2,1,0.3,1.4c1.3,0.2,2.6-0.3,3.7-1.3c1.9-1.7,5.8-4.9,12.4-7.9c5.1-2.3,11-2.4,13.8-2.3c0.6,0,1.1-0.1,1.7-0.3
		C43.1,25.9,37.7,22.6,32.5,24.4z"/>
	<path fill="#28A2A6" d="M10.7,28.7c0.5,4.7-4.4,5.6-6.8,4.4c-2.3-1.2-3.1-4-2-6.4c2-4.4,7.1-6,7.1-6s-0.2,2.1,0.4,4.3
		C9.8,26.3,10.6,27.3,10.7,28.7z"/>
</g>
</svg>
