<?xml version="1.0" encoding="utf-8"?>
<!-- Generator: Adobe Illustrator 17.1.0, SVG Export Plug-In . SVG Version: 6.00 Build 0)  -->
<!DOCTYPE svg PUBLIC "-//W3C//DTD SVG 1.1 Tiny//EN" "http://www.w3.org/Graphics/SVG/1.1/DTD/svg11-tiny.dtd">
<svg version="1.1" baseProfile="tiny" id="Layer_1" xmlns="http://www.w3.org/2000/svg" xmlns:xlink="http://www.w3.org/1999/xlink"
	 x="0px" y="0px" viewBox="0 0 69 69" xml:space="preserve">
<g>
	<circle display="none" fill="#FFCA00" cx="34.5" cy="34.5" r="34.5"/>
	<path fill="#453700" d="M42.9,16.9c0.1-1.1,0.4-2.2,0.9-3.2c0.5-1,1.3-2,2.4-2.6c1.1-0.7,2.4-0.9,3.6-0.8c1.2,0.1,2.4,0.6,3.4,1.2
		c2,1.2,3.6,3,4.6,5.1c1,2,1.5,4.3,1.2,6.5c-0.6-2.1-1.4-4-2.6-5.7c-1.2-1.7-2.6-3.2-4.3-4.1c-1.6-1-3.6-1.4-5.3-0.7
		C45.2,13.2,43.9,15,42.9,16.9z"/>
	<path fill="#453700" d="M31.2,15.7c0.1-2.2,0-4.4-1.2-5.8c-1.1-1.5-3-2.1-4.9-2c-1.9,0-3.9,0.6-5.8,1.4c-1.8,0.9-3.5,2.1-5.1,3.7
		c0.9-2,2.4-3.8,4.3-5c1.9-1.3,4.2-2,6.5-2.1c1.2,0,2.4,0.2,3.5,0.7C29.7,7,30.8,7.9,31.3,9c0.6,1.1,0.8,2.3,0.7,3.5
		C32,13.6,31.7,14.7,31.2,15.7z"/>
	<g>
		<path fill="#631B1A" d="M63.5,30.7c-0.3,2.9-0.9,5.8-1.9,8.6c-5.2,14.8-18.8,24-34.4,21c-13.1-2.5-22-12.6-24.2-25.2
			c-1-5.8-0.3-11.8,1.6-17.3l0.5-1.4c0.3-0.9,1.3-1.3,2.2-0.9c3.8,1.8,13.8,6.2,26,8.7c14.6,3.1,23.9,2.6,28.1,2
			c1.3-0.2,2.5,0.9,2.3,2.3L63.5,30.7z"/>
		<path fill="#FFFFFF" d="M13.5,25.8c0.7,0.2,1.4,0.3,2.1,0.4c1.1,1.6,2.7,2.8,4.6,3.4c1.6,0.5,3.2,0.5,4.6,0.1
			c1,1.1,2.3,1.9,3.8,2.4c1.9,0.6,3.9,0.5,5.6-0.2c1.1,1.5,2.7,2.6,4.6,3.2c2,0.6,4.1,0.5,5.9-0.1c0.9,0.7,1.9,1.2,3.1,1.6
			c5.3,1.6,10.9-1.3,12.5-6.6c0.4-1.2,0.5-2.5,0.4-3.7c-4.5,0.5-13.6,0.9-27.5-2.1c-11.9-2.5-21.8-6.8-25.7-8.6
			C6.5,20,9.1,24.5,13.5,25.8z"/>
		<path fill="#D45555" d="M36,47.1c-2.7-0.8-5.4-0.7-7.8,0.1c-1.4-1.8-3.2-3.3-5.5-4.3c-5.5-2.3-11.7-0.8-15.5,3.4
			c4.2,7.1,11.2,12.3,20.1,14c6.6,1.3,12.9,0.3,18.3-2.3C44.8,53,41.2,48.7,36,47.1z"/>
	</g>
</g>
</svg>
