<?xml version="1.0" encoding="utf-8"?>
<!-- Generator: Adobe Illustrator 17.1.0, SVG Export Plug-In . SVG Version: 6.00 Build 0)  -->
<!DOCTYPE svg PUBLIC "-//W3C//DTD SVG 1.1 Tiny//EN" "http://www.w3.org/Graphics/SVG/1.1/DTD/svg11-tiny.dtd">
<svg version="1.1" baseProfile="tiny" id="Layer_1" xmlns="http://www.w3.org/2000/svg" xmlns:xlink="http://www.w3.org/1999/xlink"
	 x="0px" y="0px" viewBox="0 0 69 69" xml:space="preserve">
<g>
	<circle display="none" fill="#FFCA00" cx="34.5" cy="34.5" r="34.5"/>
	<circle fill="#FFFFFF" cx="20.8" cy="19" r="11.8"/>
	
		<ellipse transform="matrix(0.9998 -1.953642e-02 1.953642e-02 0.9998 -0.9232 0.709)" fill="#631B1A" cx="35.8" cy="47.6" rx="9" ry="16.9"/>
	<circle fill="#2D2D2D" cx="22.5" cy="21.7" r="6.8"/>
	<circle fill="#FFFFFF" cx="20.8" cy="19.5" r="2.5"/>
	<circle fill="#FFFFFF" cx="47.6" cy="18.4" r="11.8"/>
	<circle fill="#2D2D2D" cx="46" cy="21.2" r="6.8"/>
	<circle fill="#FFFFFF" cx="44.3" cy="19" r="2.5"/>
	<path fill="#631B1A" d="M36.4,55.4c1-0.7,2.2-1.2,3.5-1.3c1.5-0.1,2.9,0.3,4.1,1.1c0.6-2.3,0.9-5,0.8-7.8
		c-0.2-9.3-4.4-16.8-9.3-16.8c-5,0.1-8.8,7.8-8.7,17.1c0.1,3.2,0.6,6.1,1.4,8.6c1.3-1.3,3.1-2.1,5-2C34.4,54.5,35.5,54.8,36.4,55.4z
		"/>
	<path fill="#D45555" d="M36.2,64.5c3.5-0.1,6.4-3.9,7.8-9.3c-1.2-0.8-2.6-1.2-4.1-1.1c-1.3,0.1-2.5,0.6-3.5,1.3
		c-0.9-0.6-2-0.9-3.1-1c-2-0.1-3.8,0.7-5,2C29.9,61.3,32.9,64.6,36.2,64.5z"/>
</g>
</svg>
