<?xml version="1.0" encoding="utf-8"?>
<!-- Generator: Adobe Illustrator 17.1.0, SVG Export Plug-In . SVG Version: 6.00 Build 0)  -->
<!DOCTYPE svg PUBLIC "-//W3C//DTD SVG 1.1 Tiny//EN" "http://www.w3.org/Graphics/SVG/1.1/DTD/svg11-tiny.dtd">
<svg version="1.1" baseProfile="tiny" id="Layer_1" xmlns="http://www.w3.org/2000/svg" xmlns:xlink="http://www.w3.org/1999/xlink"
	 x="0px" y="0px" viewBox="0 0 50 50" xml:space="preserve">
<g>
	<circle display="none" fill="#FFCA00" cx="25" cy="25" r="25"/>
	<circle fill="#FFFFFF" cx="15.3" cy="13.7" r="8.5"/>
	<circle fill="#2D2D2D" cx="16.5" cy="15.7" r="5"/>
	<circle fill="#FFFFFF" cx="15.3" cy="14.1" r="1.8"/>
	<path fill="#FFFFFF" d="M42.7,16.4c0.4-1,0.6-2.1,0.6-3.2c-0.1-4.7-4-8.5-8.7-8.4s-8.5,4-8.4,8.7c0.1,3.4,2.1,6.3,5.1,7.6
		c1.5-1.4,3.4-2.6,5.6-3.4C38.9,16.9,40.8,16.5,42.7,16.4z"/>
	<path fill="#2D2D2D" d="M38.2,17.2c0.3-0.6,0.4-1.3,0.4-2c-0.1-2.7-2.3-4.9-5.1-4.9c-2.7,0.1-4.9,2.3-4.9,5.1
		c0,2.3,1.7,4.2,3.8,4.7c1.3-1,2.8-1.8,4.5-2.5C37.3,17.5,37.7,17.4,38.2,17.2z"/>
	<circle fill="#FFFFFF" cx="32.3" cy="13.8" r="1.8"/>
	<path fill="#631B1A" d="M30.8,36c-7.7,3-5.8,7.5-12,7.7c-3.2,0.1-7.2-3.1-8.1-6l0-0.1c-0.9-2.9-0.2-7,2.2-8.7c3-2.2,7.4,0,13.2-1.2
		c8.6-1.8,8.4-6,11.5-6.7c4.3-1,6.7,2.9,7.7,6.2h0c0.8,2.7-0.1,5.6-2.4,6.9C41.3,35,35.8,34.1,30.8,36z"/>
	<path fill="#FFFFFF" d="M13,31.8c1,2.8,4,4.2,6.8,3.3c0.7-0.3,1.4-0.6,1.9-1.1c1,0.3,2.2,0.3,3.3,0c1-0.4,1.9-1,2.5-1.9
		c1,0.4,2.1,0.4,3.2,0c0.6-0.2,1.2-0.5,1.6-0.9c0.8,0.2,1.7,0.1,2.5-0.2c1.3-0.4,2.2-1.3,2.8-2.4c0.5,0,1-0.1,1.5-0.3
		c2.5-0.9,3.9-3.6,3-6.2c-0.1-0.2-0.1-0.4-0.2-0.5c-1.1-0.7-2.4-1-4-0.6c-3.1,0.7-2.9,5-11.5,6.7c-5.8,1.2-10.2-1-13.2,1.2
		c-0.1,0-0.1,0.1-0.2,0.2C12.6,29.9,12.7,30.9,13,31.8z"/>
	<path fill="#FFFFFF" d="M30.8,36c5-1.9,10.5-1,12.2-2c1.3-0.7,2.1-2,2.5-3.5c-1.2-1.9-3.7-2.7-5.9-1.9c-1.2,0.5-2.1,1.4-2.6,2.5
		c-0.5,0-1.1,0.1-1.6,0.3c-0.6,0.3-1.2,0.6-1.7,1.1c-0.8-0.1-1.6,0-2.4,0.3c-0.8,0.3-1.5,0.8-2,1.4c-1.2-0.5-2.6-0.5-3.9,0
		c-0.6,0.3-1.2,0.6-1.7,1.1c-1.1-0.3-2.3-0.3-3.5,0.2c-2.7,1.1-4,4.2-3,6.9c0.2,0.4,0.4,0.8,0.7,1.2c0.3,0,0.5,0.1,0.8,0
		C25,43.6,23.1,39,30.8,36z"/>
</g>
</svg>
